HIERARCHY
ROOT Hips
{
	OFFSET -0.179506 -22.333345 2.821913
	CHANNELS 6 Xposition Yposition Zposition Zrotation Yrotation Xrotation 
	JOINT LeftUpLeg
	{
		OFFSET 6.951974 -9.140623 -0.681533
		CHANNELS 3 Zrotation Yrotation Xrotation
		JOINT LeftLeg
		{
			OFFSET 3.427654 -37.519855 -0.449580
			CHANNELS 3 Zrotation Yrotation Xrotation
			JOINT LeftFoot
			{
				OFFSET -1.359570 -39.796059 -4.369333
				CHANNELS 3 Zrotation Yrotation Xrotation
				JOINT LeftToe
				{
					OFFSET 2.635814 -5.579078 11.928840
					CHANNELS 3 Zrotation Yrotation Xrotation
					End Site
					{
						OFFSET 0.000000 0.000000 0.000000
					}
				}
			}
		}
	}
	JOINT RightUpLeg
	{
		OFFSET -6.767048 -9.052170 -0.431982
		CHANNELS 3 Zrotation Yrotation Xrotation
		JOINT RightLeg
		{
			OFFSET -3.829005 -38.256897 -0.885003
			CHANNELS 3 Zrotation Yrotation Xrotation
			JOINT RightFoot
			{
				OFFSET 1.577377 -39.841461 -4.231180
				CHANNELS 3 Zrotation Yrotation Xrotation
				JOINT RightToe
				{
					OFFSET -2.537174 -4.814398 12.334795
					CHANNELS 3 Zrotation Yrotation Xrotation
					End Site
					{
						OFFSET 0.000000 0.000000 0.000000
					}
				}
			}
		}
	}
	JOINT Spine
	{
		OFFSET -0.253288 10.896323 -2.669631
		CHANNELS 3 Zrotation Yrotation Xrotation
		JOINT Spine1
		{
			OFFSET 0.548704 13.518043 0.109247
			CHANNELS 3 Zrotation Yrotation Xrotation
			JOINT Spine2
			{
				OFFSET 0.145701 5.292222 2.542457
				CHANNELS 3 Zrotation Yrotation Xrotation
				JOINT Neck
				{
					OFFSET -0.277840 21.387037 -4.285703
					CHANNELS 3 Zrotation Yrotation Xrotation
					JOINT Head
					{
						OFFSET 0.515184 6.496960 5.134897
						CHANNELS 3 Zrotation Yrotation Xrotation
						End Site
						{
							OFFSET 0.000000 0.000000 0.000000
						}
					}
				}
				JOINT LeftShoulder
				{
					OFFSET 7.884473 12.174932 -3.408961
					CHANNELS 3 Zrotation Yrotation Xrotation
					JOINT LeftArm
					{
						OFFSET 9.097692 3.046888 -0.886815
						CHANNELS 3 Zrotation Yrotation Xrotation
						JOINT LeftForeArm
						{
							OFFSET 25.961220 -1.277207 -2.745643
							CHANNELS 3 Zrotation Yrotation Xrotation
							JOINT LeftHand
							{
								OFFSET 24.923361 0.898606 -0.117091
								CHANNELS 3 Zrotation Yrotation Xrotation
								End Site
								{
									OFFSET 0.000000 0.000000 0.000000
								}
							}
						}
					}
				}
				JOINT RightShoulder
				{
					OFFSET -8.175920 11.883285 -3.861528
					CHANNELS 3 Zrotation Yrotation Xrotation
					JOINT RightArm
					{
						OFFSET -9.601238 3.255117 -0.914307
						CHANNELS 3 Zrotation Yrotation Xrotation
						JOINT RightForeArm
						{
							OFFSET -25.374195 -1.332924 -2.140099
							CHANNELS 3 Zrotation Yrotation Xrotation
							JOINT RightHand
							{
								OFFSET -25.529810 0.777228 -0.555919
								CHANNELS 3 Zrotation Yrotation Xrotation
								End Site
								{
									OFFSET 0.000000 0.000000 0.000000
								}
							}
						}
					}
				}
			}
		}
	}
}
MOTION
Frames: 7
Frame Time: 0.033333
-33.566151 67.585541 22.421612 94.026784 32.694001 -178.810737 11.055286 5.707988 -0.425773 -9.679993 0.422152 17.789137 -6.915691 10.222905 -13.951056 nan nan nan -19.324967 2.027169 -42.938131 2.453905 -9.969619 53.218303 17.172802 5.974375 -20.540642 nan nan nan 8.653668 -4.633965 13.053718 6.227074 5.860907 -11.670535 3.022354 3.510452 2.810001 -2.473122 35.394712 0.045481 2.485426 -13.648878 -44.372072 19.314735 25.490133 -15.756099 -6.924504 -37.148918 -21.012370 74.114856 -37.877998 -58.995288 3.526048 -19.628658 -1.365943 8.207606 -0.057899 2.102264 55.975492 16.243173 4.922246 -151.520321 51.572367 -119.911602 -20.771178 24.698112 -6.829336 
-33.777416 67.945663 22.247559 93.563997 33.569184 -178.891911 10.412042 5.802104 -0.450289 -9.159197 0.618336 17.148774 -6.993921 10.664698 -13.421541 nan nan nan -19.528633 1.661723 -43.727825 2.238322 -10.150362 53.801755 17.116010 5.815447 -20.565855 nan nan nan 8.631606 -4.710507 13.113589 6.253459 5.832684 -11.567854 3.005892 3.476343 2.736588 -2.839988 35.637116 0.172757 2.470741 -13.227431 -44.402555 19.307178 25.920622 -15.898583 -6.846764 -36.276533 -20.769347 73.454466 -38.025693 -58.847241 2.998491 -19.492198 -1.070727 8.527292 -0.043024 2.019398 55.631856 16.118651 5.401442 -151.644671 52.348269 -120.616145 -18.565458 25.001521 -5.283947 
-33.992756 68.301521 22.117437 93.255989 34.415533 -178.916483 9.919288 6.004380 -0.513798 -8.588161 0.804219 16.655341 -7.172119 10.823503 -12.956618 nan nan nan -19.639879 1.461851 -44.504006 1.964639 -10.376933 54.415520 17.237499 5.788795 -20.553404 nan nan nan 8.710083 -4.824185 13.103106 6.339362 5.828148 -11.266793 2.950262 3.461889 2.593253 -3.042382 35.984926 0.665724 2.472596 -12.887888 -44.675179 19.383245 26.118429 -15.913998 -6.681415 -35.147767 -20.443331 72.786770 -38.043824 -58.399654 3.223356 -19.552893 -1.265919 8.735729 0.196700 2.147559 55.318447 16.037283 5.867392 -151.172129 52.995793 -120.261950 -19.438918 25.149110 -4.693819 
-34.209988 68.677010 21.976505 93.073268 35.169848 -178.835751 9.522938 6.074060 -0.688138 -8.064727 0.912848 16.244797 -7.246070 10.979716 -12.596981 nan nan nan -19.780662 1.159996 -45.180715 1.840000 -10.776643 54.916854 17.242283 5.979680 -20.541769 nan nan nan 8.880224 -4.760904 13.048954 6.426193 5.982550 -10.897032 3.016714 3.314966 2.265102 -3.234008 36.107067 1.071443 2.300992 -12.482903 -44.586565 19.441007 26.128226 -15.759724 -6.606790 -34.274965 -20.182875 72.187211 -37.798656 -58.029738 3.027539 -19.583012 -1.192555 8.702909 0.195197 2.173344 54.761641 15.791224 6.150863 -151.067975 53.974362 -120.343282 -18.658486 25.431593 -3.963178 
-34.422874 69.060226 21.809052 92.868904 35.981581 -178.687128 9.021074 5.971348 -1.022204 -7.471072 1.147804 15.998967 -7.263149 11.143636 -12.223326 nan nan nan -19.842916 0.894256 -45.919316 1.783277 -10.942118 55.381975 17.233706 6.118091 -20.362981 nan nan nan 9.180969 -4.760403 13.064224 6.379086 6.068984 -11.060485 3.006545 3.299603 2.437554 -3.688520 36.148101 0.982123 2.187035 -11.971906 -44.420548 19.561000 26.080442 -15.585164 -6.413279 -33.139321 -20.107084 71.680611 -37.700151 -58.049017 2.683277 -19.341937 -1.054842 8.726192 0.231293 2.262414 54.068651 15.696832 6.075146 -151.405367 54.972396 -121.201289 -16.883957 25.544541 -3.024645 
-34.656216 69.402641 21.668846 92.557770 36.988246 -178.514722 8.505513 5.880109 -1.172260 -7.216379 0.982335 15.299646 -6.943617 11.406084 -11.711555 nan nan nan -19.888976 0.858361 -46.914660 1.686026 -10.951965 55.965394 17.236507 6.078952 -19.997662 nan nan nan 9.115006 -4.701663 13.150648 6.424678 6.219365 -11.268300 3.069713 3.363510 2.567831 -4.278970 36.225828 0.731693 2.023232 -11.360865 -44.325368 19.813254 25.946466 -15.249144 -6.036576 -31.607838 -20.119827 71.195622 -37.676577 -58.038977 2.421400 -19.029860 -1.090454 8.760427 0.325055 2.353875 53.356844 15.621025 5.971068 -151.717798 55.746499 -122.011361 -15.569847 25.360028 -2.361990 
-34.908955 69.768936 21.536562 92.207588 37.954844 -178.372162 7.923653 5.647133 -1.324374 -7.060208 0.454508 14.573197 -6.531916 11.733139 -11.189158 nan nan nan -20.050715 0.753250 -47.861323 1.665715 -11.090604 56.479456 17.332678 5.961344 -19.727905 nan nan nan 8.919976 -4.536183 13.183820 6.547167 6.368722 -11.163266 3.185746 3.314250 2.490765 -4.870145 36.350364 0.394760 1.757260 -10.704328 -44.318540 20.153757 25.716925 -14.868014 -5.792451 -29.830387 -20.068290 70.788925 -37.551849 -57.665244 2.484390 -18.977308 -1.389980 8.728813 0.543695 2.412446 52.519363 15.583154 5.815874 -151.827216 56.381883 -122.336583 -15.482958 25.362127 -1.495674 
